<svg id="icon" height="512" viewBox="0 0 340 340" width="512" xmlns="http://www.w3.org/2000/svg"><g fill="rgb(0,0,0)"><path d="m319.061 15.517c-6.118-16.574-29.584-9.609-22.389 8.215-9.283 13.053-24.379 22.879-46.82 21.314-2.6-14.679-23.488-14.669-26.081 0h-107.33c-2.6-14.679-23.487-14.669-26.081 0-4.139.044-10.284-.552-13.8 1.914a16.162 16.162 0 0 0 -21.352-.2 3.179 3.179 0 0 1 -3.8.371c-3.83-2.75-7.234-6.517-12.35-6.534-2.601-10.797-18.125-11.686-21.671-1.056a61.571 61.571 0 0 0 -2.954 19.421 61.016 61.016 0 0 0 2.954 19.419c3.5 10.643 19.167 9.68 21.666-1.053 5.07-.026 8.455-3.7 12.239-6.463a3.213 3.213 0 0 1 3.806.206 16.183 16.183 0 0 0 21.457-.11c3.477 2.44 9.524 1.883 13.617 1.916v257.555a3.455 3.455 0 0 0 5.477 2.8l74.457-53.747 74.456 53.747a3.455 3.455 0 0 0 5.478-2.8v-257.555c22.352-1.559 37.456 8.393 46.632 21.313-.322 1.24-.644 2.418-.958 3.52-2.146 6.8 3.484 14.3 10.618 14.1a13.331 13.331 0 0 0 12.729-9.4c8.67-35.254 8.679-51.612 0-86.889zm-286.691 28.583a74.784 74.784 0 0 0 -1.192 13.89v-.009c-.055 3.37-.67 9.862-9.25 9.434-1.079-8.736-.413-19.562 2.01-25.663 1.785-5.027 9.485-2.858 8.432 2.348zm34.673 13.841c-1.841 3.8-6.06 4.267-9.737 2.87-5.3-1.829-10.337-.36-15.151 2.3a4.253 4.253 0 0 1 -4.026-1.047 90.646 90.646 0 0 1 .656-14.575c3.718.22 5.874 3.838 8.915 5.471a10.045 10.045 0 0 0 12.037-.988 9.22 9.22 0 0 1 11.9-.139 22.264 22.264 0 0 0 -4.594 6.108zm23.129 4.415h-7.619c-6.028 0-5.141-6.7-5.141-6.7a6.732 6.732 0 0 1 6.155-3.694h6.605zm26.457-10.4h106.953v10.4h-106.953zm0 20.92h106.953v20.843a20.3 20.3 0 0 1 -20.282 20.281h-66.391a20.3 20.3 0 0 1 -20.28-20.28zm126.5 250.8-73.023-52.713v-44.549a9.127 9.127 0 0 0 -10.146-9.1 113.9 113.9 0 0 0 -19.457 4.156 11.14 11.14 0 0 1 -14.066-8.182l-10.078-31.968a2.747 2.747 0 0 1 4.747-2.565l11.121 13.6a6.463 6.463 0 0 0 6.114 2.37 6.245 6.245 0 0 0 5.116-5.946c.211-6.748.646-15.131 1.012-21.574a2.747 2.747 0 0 1 5.191-1.09c1.851 3.088 8.211 17.568 10.862 19.7a5.714 5.714 0 0 0 9.584-4.214v-60.691h33.2a27.191 27.191 0 0 0 27.19-27.191v-46.319a6.467 6.467 0 0 1 5.486-6.485 6.327 6.327 0 0 1 7.15 6.265zm54.548-268.365a13.32 13.32 0 0 1 -16.432 9.959 95.688 95.688 0 0 0 -12.206-2.37c-5.72-.876-3.6-7.379-5.535-11.367 16.847-2.144 28.287-11.378 35.145-19.215a71.362 71.362 0 0 1 -.972 22.993zm20.638 12.034c-2.307 9.4-10.95 7.36-10.95 7.36v.011c1.96-19.173.291-39.9-5-56.4-1.242-7.123 8.586-6.565 10.081-.821 5.064 20.837 7.019 34.531 5.869 49.85z"/><path d="m222.473 178.091-11.787 14.409c-3.644 4.656-11.534 1.984-11.592-3.928-.221-7.059-.676-15.828-1.059-22.568a2.873 2.873 0 0 0 -5.429-1.138l-8.442 16.555a13.383 13.383 0 0 1 -7.74 6.635 7.782 7.782 0 0 0 -5.205 7.445v14.927a7.643 7.643 0 0 0 7 7.631 115.912 115.912 0 0 1 23.964 4.708 11.652 11.652 0 0 0 14.713-8.558l10.542-33.437a2.874 2.874 0 0 0 -4.965-2.681z"/></g></svg>