<svg id="Layer_1" enable-background="new 0 0 100 100" height="512" viewBox="0 0 100 100" width="512" xmlns="http://www.w3.org/2000/svg"><g><path d="m78.8 62.6 1.3-1.5c.4-.4.3-1.1-.1-1.4-.4-.4-1.1-.3-1.4.1l-1.3 1.5c-.4.4-.3 1.1.1 1.4.4.4 1.1.3 1.4-.1z"/><path d="m74.6 67.6 1.3-1.5c.4-.4.3-1.1-.1-1.4-.4-.4-1.1-.3-1.4.1l-1.3 1.5c-.4.4-.3 1.1.1 1.4.5.4 1.1.3 1.4-.1z"/><path d="m79.2 67.2c.4.4 1.1.3 1.4-.1.4-.4.3-1.1-.1-1.4l-1.5-1.3c-.4-.4-1.1-.3-1.4.1-.4.4-.3 1.1.1 1.4z"/><path d="m75.6 62.9c.4-.4.3-1.1-.1-1.4l-1.5-1.3c-.4-.4-1.1-.3-1.4.1-.4.4-.3 1.1.1 1.4l1.5 1.3c.4.4 1.1.3 1.4-.1z"/><path d="m14.1 14 1.3-1.5c.4-.4.3-1.1-.1-1.4-.4-.4-1.1-.3-1.4.1l-1.3 1.5c-.4.4-.3 1.1.1 1.4.4.4 1 .3 1.4-.1z"/><path d="m9.6 16.2-1.3 1.5c-.4.4-.3 1.1.1 1.4.4.4 1.1.3 1.4-.1l1.3-1.5c.4-.4.3-1.1-.1-1.4s-1-.3-1.4.1z"/><path d="m15.9 18.5c.4-.4.3-1.1-.1-1.4l-1.5-1.3c-.4-.4-1.1-.3-1.4.1-.4.4-.3 1.1.1 1.4l1.5 1.3c.4.4 1 .3 1.4-.1z"/><path d="m9.2 11.6c-.4-.4-1.1-.3-1.4.1-.4.4-.3 1.1.1 1.4l1.5 1.3c.4.4 1.1.3 1.4-.1.4-.4.3-1.1-.1-1.4z"/><path d="m83.6 40.2c0-2.7-2.2-4.9-4.9-4.9s-4.9 2.2-4.9 4.9 2.2 4.9 4.9 4.9 4.9-2.2 4.9-4.9zm-4.9 2.9c-1.6 0-2.9-1.3-2.9-2.9s1.3-2.9 2.9-2.9 2.9 1.3 2.9 2.9-1.3 2.9-2.9 2.9z"/><path d="m3.2 49.9c0 2.7 2.2 4.9 4.9 4.9s4.9-2.2 4.9-4.9-2.2-4.9-4.9-4.9-4.9 2.2-4.9 4.9zm4.9-2.9c1.6 0 2.9 1.3 2.9 2.9s-1.3 2.9-2.9 2.9-2.9-1.3-2.9-2.9 1.3-2.9 2.9-2.9z"/><path d="m96.4 90.9h-5.4c-.6 0-1 .4-1 1s.4 1 1 1h5.4c.6 0 1-.4 1-1s-.5-1-1-1z"/><path d="m87.5 90.9h-41c1.5-1.4 2.4-3.3 2.4-5.5 0-.4 0-9.1 0-9.4 0-2.6-1.1-5.2-3-7l-5.2-4.9v-4.8c1.9-.1 3.3-1.7 3.3-3.6v-.2c0-2-1.6-3.6-3.6-3.6h-10.2c.8-1.5 2.3-4 4.5-7.1 1 1 2.4 1.6 3.8 1.8 1 .1 2.1.2 3.3.2 5.8 0 13.9-1.6 19.1-6.4.5-.5.8-1.2.6-1.9-.1-.7-.6-1.4-1.3-1.7s-1.4-.9-1.8-1.6c0 0 .1-.1.1-.1 4.9-.3 10.8-1.3 16.5-7 .5-.5.7-1.2.6-1.9s-.5-1.3-1.1-1.6-1.2-.7-1.6-1.1c0 0-.1-.1 0-.1 0-.1.1-.1.1-.1l2.9-.5c3-.5 5.7-1.6 8.2-3.2l11.3-7.4c.9-.6 1.3-1.6 1-2.6-.2-1-1.1-1.7-2.1-1.9-6.3-.8-14-.8-24.1 0-13.8 1.5-20.7 3.9-25.3 14.4 0 0-.1.1-.2.1s-.1-.1-.1-.1l-.6-3.2c-.1-.7-.7-1.3-1.4-1.6s-1.5-.1-2.1.3c-7.3 5.6-8.1 14-7.8 22.3 0 1.2.4 2.2.9 3.2-3 4.2-4.9 7.5-5.5 8.7h-8.8c-2 0-3.6 1.6-3.6 3.6v.2c0 1.9 1.5 3.4 3.3 3.6v4.8l-5 5c-1.8 1.8-2.8 4.2-2.8 6.8 0 .2 0 9.7 0 9.6 0 2.2.9 4.2 2.4 5.5h-5.1c-.6 0-1 .4-1 1s.4 1 1 1h78.9c.6 0 1-.4 1-1s-.3-1-.9-1zm-45.8-71.7h.2c.1 0 .1.1.1.1l.6 3.1c.2.9.9 1.6 1.9 1.7.9.1 1.8-.4 2.2-1.3 4.2-9.6 9.8-11.8 23.6-13.2 9.9-.7 17.5-.7 23.9.1.3 0 .3.2.4.3 0 .1 0 .3-.2.5l-11.3 7.4c-2.3 1.5-4.8 2.5-7.5 2.9l-2.9.5c-.8.1-1.5.7-1.7 1.5s0 1.6.6 2.2c.6.5 1.3 1 2.1 1.4 0 0 0 0 .1.1 0 0 0 .1-.1.2-5.3 5.2-10.6 6.2-15.2 6.4-.8 0-1.5.5-1.8 1.2s-.3 1.5.2 2.1c.6.9 1.6 1.7 2.7 2.2.1 0 .1.1.2.2v.1c-5.8 5.3-15.6 6.3-20.7 5.7-1.1-.1-2.1-.7-2.9-1.5 7.1-9.5 20-22.8 38.6-27 .5-.1.9-.7.8-1.2s-.7-.9-1.2-.8c-18.8 4.2-31.9 17.4-39.3 27.2-.2-.5-.3-.9-.3-1.4-.4-7.7.3-15.6 6.9-20.7zm-24 36.5v-.2c0-.9.7-1.6 1.6-1.6h21.2c.9 0 1.6.7 1.6 1.6v.2c0 .9-.7 1.6-1.6 1.6h-21.2c-.9 0-1.6-.8-1.6-1.6zm21.1 3.6v4.2h-17.8v-4.2zm-23.4 11.1 4.9-4.9h19l5.2 4.9c1.3 1.2 2.1 2.9 2.3 4.7h-33.7c.3-1.7 1.1-3.4 2.3-4.7zm26 20.5h-22.7c-3.1 0-5.5-2.5-5.5-5.5v-8.2h33.8v8.2c0 3-2.5 5.5-5.6 5.5z"/><path d="m4.7 90.9h-1.1c-.6 0-1 .4-1 1s.4 1 1 1h1.1c.6 0 1-.4 1-1s-.5-1-1-1z"/></g></svg>