<svg id="Capa_1" enable-background="new 0 0 510.66 510.66" height="512" viewBox="0 0 510.66 510.66" width="512" xmlns="http://www.w3.org/2000/svg"><g><path d="m236.145 142h15v15h-15z"/><path d="m297.083 142h15v15h-15z"/><path d="m273.971 215.181c15.148 0 28.79-8.41 35.601-21.949l-13.399-6.742c-4.249 8.445-12.756 13.691-22.201 13.691-9.242 0-17.666-5.084-21.983-13.268l-13.267 7c6.921 13.118 20.427 21.268 35.249 21.268z"/><path d="m499.468 374.16c0-13.525-3.988-26.577-11.532-37.745l-12.43 8.396c5.863 8.679 8.962 18.827 8.962 29.349v24.54l-45 14.528v-33.401h-15v38.244l-45 14.528v-32.772h-15v37.614l-30 9.686v-.3c0-15.163-12.336-27.5-27.5-27.5h-25.354v-57.61l77.185-40.057h73.169c12.817 0 25.159 4.669 34.75 13.146l9.934-11.238c-12.335-10.903-28.204-16.907-44.684-16.907h-35.917v-130.366c8.206-2.266 15.528-7.274 20.577-14.349l.425-.596 21.254-46.913h-42.424c-1.458-33.366-12.711-61.426-32.777-81.492-21.553-21.552-52.326-32.945-88.992-32.945-33.035 0-60.528 8.842-81.717 26.28l9.532 11.582c18.433-15.17 42.719-22.862 72.185-22.862 32.602 0 59.708 9.873 78.386 28.552 17.226 17.226 26.956 41.624 28.366 70.886h-17.016c-1.77-33.446-15.553-58.033-40.141-71.37l-3.966-2.151-33.078 21.969c-7.608 5.052-17.422 5.024-25.002-.071l-32.848-22.086-3.979 2.128c-24.792 13.265-38.685 37.926-40.459 71.582h-16.997c1.313-26.997 9.74-50.04 24.612-66.964l-11.268-9.902c-17.285 19.67-27.021 46.127-28.377 76.866h-42.011l21.254 46.913.425.596c4.964 6.955 12.124 11.915 20.161 14.233v63.093l-31.901 17.542-18.532-33.702 11.38-41.564-36.212-65.852-19.09 27.544-9.31-16.931-13.144 7.229 9.31 16.93-33.485 1.367 36.212 65.853 41.196 12.652 18.532 33.701-26.287 14.455 17.027 30.966c-27.883 8.299-48.279 34.154-48.279 64.696v35.453l9.521 3.086v97.961h15v-93.1l65.479 21.221v26.379h15v-21.518l59.875 19.405v4.112c0 15.163 12.336 27.5 27.5 27.5h65c15.164 0 27.5-12.337 27.5-27.5v-4.27l60-19.371v67.141h15v-71.983l64.646-20.871v92.854h15v-97.697l10.354-3.343zm-463.459-208.324 25.114-1.025 14.317-20.658 21.61 39.299-8.535 31.173-30.896-9.49zm131.167 11.824h17v7.387c0 37.489 14.104 64.491 39.938 78.635v19.311l-39.556-17.245-.322 40.912h-17.059v-129zm71.938 92.352c10.354 3.271 22.043 4.973 35 4.973s24.646-1.702 35-4.973v19.662l-34.987 15.123-35.013-15.264zm42.5 47.888 67.854-29.328v21.03l-67.854 35.216zm82.854-11.24v-40.912l-40.354 17.442v-19.508c25.834-14.144 39.938-41.146 39.938-78.635v-7.387h17v129zm39.548-152.882c-4.239 5.574-10.883 8.882-17.91 8.882h-22.055v-33.223h50.993zm-204.84-31.84c0-20.972 5.138-48.523 28.911-63.624l25.206 16.947c12.632 8.494 28.988 8.541 41.67.12l25.407-16.874c23.586 15.168 28.682 42.585 28.682 63.431v63.109c0 34.187-13.001 74.938-74.938 74.938-25.904 0-45.432-7.267-58.041-21.6-11.054-12.563-16.896-31.008-16.896-53.338v-63.109zm-54.549 31.84-11.027-24.34h50.577v33.223h-21.638c-7.028-.001-13.672-3.308-17.912-8.883zm-43.411 130.636 50.96-28.022v50.269s-37.485.035-38.674.097zm83.377 153.184v-37.771h-15v32.909l-44.775-14.511v-38.398h-15v33.537l-45.225-14.657v-24.547c0-24.9 17.431-45.792 40.727-51.152l1.889-.401c3.203-.613 91.909-.946 91.909-.946l.261-33.088 67.236 29.311v26.906l-26.194-13.664-6.938 13.299 33.132 17.282v57.621h-24.646c-15.164 0-27.5 12.337-27.5 27.5v.452zm134.875 29.562c0 6.893-5.607 12.5-12.5 12.5h-65c-6.893 0-12.5-5.607-12.5-12.5v-20.333c0-6.893 5.607-12.5 12.5-12.5h65c6.893 0 12.5 5.607 12.5 12.5z"/><path d="m247.968 450.66h15v15h-15z"/><path d="m284.968 450.66h15v15h-15z"/><path d="m139.593 480.66h15v30h-15z"/></g></svg>