<!-- assets/icons/papyrus-solid.svg -->
<svg
        viewBox="0 0 512 512"
        xmlns="http://www.w3.org/2000/svg"
        fill="currentColor"
        clip-rule="evenodd"
        fill-rule="evenodd"
        image-rendering="optimizeQuality"
        shape-rendering="geometricPrecision"
        text-rendering="geometricPrecision"
>
    <g id="Layer_x0020_1">
        <g id="_593441296">
            <g>
                <path d="m400 402c-3 0-5-2-5-5v-40l-26 2c-2 0-4-1-4-3-1-1-1-4 0-5l30-35v-103l-26-1c-2 0-4-1-5-3 0-2 0-5 2-6l29-23v-65c0-3 2-5 5-5s5 2 5 5v67c0 2-1 3-2 4l-20 16 17 1c3 0 5 2 5 5v110c0 1-1 2-1 3l-23 27 18-2c2 0 3 0 4 1s2 3 2 4v46c0 3-2 5-5 5zm-288 0c-3 0-5-2-5-5v-62c0-2 1-3 2-4l22-14-19 1c-1 0-2 0-3-1s-2-3-2-4v-100c0-1 1-3 1-4 2 0 3-1 4-1l27 1-30-19c-1-1-2-2-2-4v-71c0-3 2-5 5-5s5 2 5 5v68l44 28c2 1 2 3 2 5-1 3-3 4-5 4l-41-2v90l32-2c2 0 4 1 5 3 0 2 0 5-2 6l-35 23v59c0 3-2 5-5 5z"/>
            </g>
            <g><path d="m427 120h-342c-3 0-5-2-5-5s2-5 5-5h342c3 0 5 2 5 5s-2 5-5 5zm0-77h-342c-3 0-5-2-5-5s2-5 5-5h342c3 0 5 2 5 5s-2 5-5 5z"/></g>
            <g><path d="m447 142c-14 0-25-11-25-25v-82c0-14 11-25 25-25s25 11 25 25v82c0 14-11 25-25 25zm0-122c-8 0-15 7-15 15v82c0 8 7 15 15 15s15-7 15-15v-82c0-8-7-15-15-15z"/></g>
            <g><path d="m65 142c-14 0-25-11-25-25v-82c0-14 11-25 25-25s25 11 25 25v82c0 14-11 25-25 25zm0-122c-8 0-15 7-15 15v82c0 8 7 15 15 15s15-7 15-15v-82c0-8-7-15-15-15z"/></g>
            <g><path d="m45 121c-25 0-45-20-45-45s20-45 45-45c3 0 5 2 5 5s-2 5-5 5c-19 0-35 16-35 35s16 35 35 35c3 0 5 2 5 5s-2 5-5 5z"/></g>
            <g><path d="m467 121c-3 0-5-2-5-5s2-5 5-5c19 0 35-16 35-35s-16-35-35-35c-3 0-5-2-5-5s2-5 5-5c25 0 45 20 45 45s-20 45-45 45z"/></g>
            <g><path d="m427 479h-342c-3 0-5-2-5-5s2-5 5-5h342c3 0 5 2 5 5s-2 5-5 5zm0-77h-342c-3 0-5-2-5-5s2-5 5-5h342c3 0 5 2 5 5s-2 5-5 5z"/></g>
            <g><path d="m447 502c-14 0-25-11-25-25v-82c0-14 11-25 25-25s25 11 25 25v82c0 14-11 25-25 25zm0-122c-8 0-15 7-15 15v82c0 8 7 15 15 15s15-7 15-15v-82c0-8-7-15-15-15z"/></g>
            <g><path d="m65 502c-14 0-25-11-25-25v-82c0-14 11-25 25-25s25 11 25 25v82c0 14-11 25-25 25zm0-122c-8 0-15 7-15 15v82c0 8 7 15 15 15s15-7 15-15v-82c0-8-7-15-15-15z"/></g>
            <g><path d="m45 481c-25 0-45-20-45-45s20-45 45-45c3 0 5 2 5 5s-2 5-5 5c-19 0-35 16-35 35s16 35 35 35c3 0 5 2 5 5s-2 5-5 5z"/></g>
            <g><path d="m467 481c-3 0-5-2-5-5s2-5 5-5c19 0 35-16 35-35s-16-35-35-35c-3 0-5-2-5-5s2-5 5-5c25 0 45 20 45 45s-20 45-45 45z"/></g>
            <g><path d="m330 68h-70c-3 0-5-2-5-5s2-5 5-5h70c3 0 5 2 5 5s-2 5-5 5z"/></g>
            <g><path d="m376 68h-24c-3 0-5-2-5-5s2-5 5-5h24c3 0 5 2 5 5s-2 5-5 5z"/></g>
            <g><path d="m228 450h-70c-3 0-5-2-5-5s2-5 5-5h70c3 0 5 2 5 5s-2 5-5 5z"/></g>
            <g><path d="m136 450h-24c-3 0-5-2-5-5s2-5 5-5h24c3 0 5 2 5 5s-2 5-5 5z"/></g>
            <g><path d="m196 255c-3 0-5-2-5-5v-84c0-3 2-5 5-5s5 2 5 5v84c0 3-2 5-5 5z"/></g>
            <g><path d="m196 203c-2 0-3-1-4-2-2-2-1-5 1-7l39-29c2-2 5-1 7 1s1 5-1 7l-39 29c-1 1-2 1-3 1z"/></g>
            <g><path d="m196 229c-2 0-3-1-4-2-2-2-1-5 1-7l39-29c2-2 5-1 7 1s1 5-1 7l-39 29c-1 1-2 1-3 1z"/></g>
            <g><path d="m288 255c-3 0-5-2-5-5v-84c0-3 2-5 5-5s5 2 5 5v84c0 3-2 5-5 5z"/></g>
            <g><path d="m288 222c-2 0-3-1-4-2-2-2-1-5 1-7l23-17-24-27c-2-2-1-5 1-7s5-1 7 1l28 31c1 1 1 2 1 4 0 1-1 2-2 3l-28 20c-1 1-2 1-3 1z"/></g>
            <g><path d="m302 366c-3 0-5-2-5-5v-84c0-3 2-5 5-5s5 2 5 5v84c0 3-2 5-5 5z"/></g>
            <g><path d="m302 311c-2 0-3-1-4-2-2-2-1-5 1-7l32-25c2-2 5-1 7 1s1 5-1 7l-32 25c-1 1-2 1-3 1z"/></g>
            <g><path d="m302 311c-1 0-2 0-3-1l-31-25c-2-2-3-5-1-7s5-3 7-1l31 25c2 2 3 5 1 7-1 1-3 2-4 2z"/></g>
            <g><path d="m302 341c-2 0-3-1-4-2-2-2-1-5 1-7l32-25c2-2 5-1 7 1s1 5-1 7l-32 25c-1 1-2 1-3 1z"/></g>
            <g><path d="m302 341c-1 0-2 0-3-1l-31-25c-2-2-3-5-1-7s5-3 7-1l31 25c2 2 3 5 1 7-1 1-3 2-4 2z"/></g>
            <g><path d="m178 311c-1 0-3 0-3-1-2-2-2-6 0-8l34-35c2-2 6-2 8 0s2 6 0 8l-35 35c-1 0-3 1-4 1z"/></g>
            <g><path d="m213 345c-1 0-3 0-4-1l-34-34c-2-2-2-6-1-7 2-2 5-2 7-1l35 34c2 2 2 6 1 7-1 2-3 2-4 2z"/></g>
        </g>
    </g>
</svg>
