<?xml version="1.0" encoding="UTF-8" standalone="no"?>
<!-- Created with Inkscape (http://www.inkscape.org/) -->

<svg
   version="1.1"
   id="svg816"
   xml:space="preserve"
   width="682.66669"
   height="682.66669"
   viewBox="0 0 682.66669 682.66669"
   xmlns="http://www.w3.org/2000/svg"
   xmlns:svg="http://www.w3.org/2000/svg"><defs
     id="defs820"><clipPath
       clipPathUnits="userSpaceOnUse"
       id="clipPath830"><path
         d="M 0,512 H 512 V 0 H 0 Z"
         id="path828" /></clipPath></defs><g
     id="g822"
     transform="matrix(1.3333333,0,0,-1.3333333,0,682.66667)"><g
       id="g824"><g
         id="g826"
         clip-path="url(#clipPath830)"><g
           id="g832"
           transform="translate(55.999,60.0005)"><path
             d="m 0,0 v 112.418 l 17.4,13.2 -17.4,14.4 v 90.601 l 26.4,22.2 -26.4,26.4 V 402 c 0,22 18,40 40,40 H 400 M 75.004,-10 H -40 c 0,-22.092 17.909,-40 40,-40 h 320 c 22,0 40,18 40,40 V 165.819 L 337.801,181.418 360,195.219 V 402 M 320,-50 c -22.091,0 -40,17.908 -40,40 H 165.004"
             style="fill:none;stroke:#000000;stroke-width:20;stroke-linecap:round;stroke-linejoin:round;stroke-miterlimit:22.926;stroke-dasharray:none;stroke-opacity:1"
             id="path834" /></g><g
           id="g836"
           transform="translate(495.999,462)"><path
             d="M 0,0 C 0,22.091 -17.908,40 -40,40 -62.091,40 -80,22.091 -80,0 Z"
             style="fill:none;stroke:#000000;stroke-width:20;stroke-linecap:round;stroke-linejoin:round;stroke-miterlimit:22.926;stroke-dasharray:none;stroke-opacity:1"
             id="path838" /></g><g
           id="g840"
           transform="translate(235.999,441.999)"><path
             d="M 0,0 V -331.997"
             style="fill:none;stroke:#000000;stroke-width:20;stroke-linecap:round;stroke-linejoin:round;stroke-miterlimit:22.926;stroke-dasharray:none;stroke-opacity:1"
             id="path842" /></g><g
           id="g844"
           transform="translate(153.4971,396.999)"><path
             d="M 0,0 C 12.393,0 22.5,10.108 22.5,22.5 22.5,34.893 12.393,45 0,45 -12.393,45 -22.5,34.893 -22.5,22.5 -22.5,10.108 -12.393,0 0,0 Z"
             style="fill:none;stroke:#000000;stroke-width:20;stroke-linecap:round;stroke-linejoin:round;stroke-miterlimit:22.926;stroke-dasharray:none;stroke-opacity:1"
             id="path846" /></g><g
           id="g848"
           transform="translate(153.4971,396.999)"><path
             d="M 0,0 V -60"
             style="fill:none;stroke:#000000;stroke-width:20;stroke-linecap:round;stroke-linejoin:round;stroke-miterlimit:22.926;stroke-dasharray:none;stroke-opacity:1"
             id="path850" /></g><g
           id="g852"
           transform="translate(129.7979,366.999)"><path
             d="M 0,0 H 46.199"
             style="fill:none;stroke:#000000;stroke-width:20;stroke-linecap:round;stroke-linejoin:round;stroke-miterlimit:22.926;stroke-dasharray:none;stroke-opacity:1"
             id="path854" /></g><g
           id="g856"
           transform="translate(319.7012,170.0024)"><path
             d="M 0,0 C 12.393,0 22.5,10.107 22.5,22.5 22.5,34.893 12.393,45 0,45 -12.393,45 -22.5,34.893 -22.5,22.5 -22.5,10.107 -12.393,0 0,0 Z"
             style="fill:none;stroke:#000000;stroke-width:20;stroke-linecap:round;stroke-linejoin:round;stroke-miterlimit:22.926;stroke-dasharray:none;stroke-opacity:1"
             id="path858" /></g><g
           id="g860"
           transform="translate(319.7012,170.0024)"><path
             d="M 0,0 V -60"
             style="fill:none;stroke:#000000;stroke-width:20;stroke-linecap:round;stroke-linejoin:round;stroke-miterlimit:22.926;stroke-dasharray:none;stroke-opacity:1"
             id="path862" /></g><g
           id="g864"
           transform="translate(296.001,140.002)"><path
             d="M 0,0 H 46.2"
             style="fill:none;stroke:#000000;stroke-width:20;stroke-linecap:round;stroke-linejoin:round;stroke-miterlimit:22.926;stroke-dasharray:none;stroke-opacity:1"
             id="path866" /></g><g
           id="g868"
           transform="translate(152.8975,281.981)"><path
             d="M 0,0 30,-51.961 H -30 Z"
             style="fill:none;stroke:#000000;stroke-width:20;stroke-linecap:round;stroke-linejoin:round;stroke-miterlimit:22.926;stroke-dasharray:none;stroke-opacity:1"
             id="path870" /></g><g
           id="g872"
           transform="translate(319.1016,441.999)"><path
             d="M 0,0 30,-51.961 H -30 Z"
             style="fill:none;stroke:#000000;stroke-width:20;stroke-linecap:round;stroke-linejoin:round;stroke-miterlimit:22.926;stroke-dasharray:none;stroke-opacity:1"
             id="path874" /></g><g
           id="g876"
           transform="translate(152.8975,110.002)"><path
             d="M 0,0 C 16.523,0 30,13.477 30,30 30,46.524 16.523,60 0,60 -16.523,60 -30,46.524 -30,30 -30,13.477 -16.523,0 0,0 Z"
             style="fill:none;stroke:#000000;stroke-width:20;stroke-linecap:round;stroke-linejoin:round;stroke-miterlimit:22.926;stroke-dasharray:none;stroke-opacity:1"
             id="path878" /></g><g
           id="g880"
           transform="translate(319.1016,269.6011)"><path
             d="M 0,0 C 16.523,0 30,13.477 30,30 30,46.524 16.523,60 0,60 -16.523,60 -30,46.524 -30,30 -30,13.477 -16.523,0 0,0 Z"
             style="fill:none;stroke:#000000;stroke-width:20;stroke-linecap:round;stroke-linejoin:round;stroke-miterlimit:22.926;stroke-dasharray:none;stroke-opacity:1"
             id="path882" /></g><g
           id="g884"
           transform="translate(82.3994,312.8193)"><path
             d="M 0,0 17.4,-2.619"
             style="fill:none;stroke:#000000;stroke-width:20;stroke-linecap:round;stroke-linejoin:round;stroke-miterlimit:22.926;stroke-dasharray:none;stroke-opacity:1"
             id="path886" /></g><g
           id="g888"
           transform="translate(393.7998,241.4189)"><path
             d="M 0,0 -16.2,-2.018"
             style="fill:none;stroke:#000000;stroke-width:20;stroke-linecap:round;stroke-linejoin:round;stroke-miterlimit:22.926;stroke-dasharray:none;stroke-opacity:1"
             id="path890" /></g><g
           id="g892"
           transform="translate(73.3994,185.6182)"><path
             d="M 0,0 12,-4.418"
             style="fill:none;stroke:#000000;stroke-width:20;stroke-linecap:round;stroke-linejoin:round;stroke-miterlimit:22.926;stroke-dasharray:none;stroke-opacity:1"
             id="path894" /></g><g
           id="g896"
           transform="translate(409.3994,76.7998)"><path
             d="M 0,0 -23.4,4.8"
             style="fill:none;stroke:#000000;stroke-width:20;stroke-linecap:round;stroke-linejoin:round;stroke-miterlimit:22.926;stroke-dasharray:none;stroke-opacity:1"
             id="path898" /></g><g
           id="g900"
           transform="translate(175.999,50)"><path
             d="M 0,0 H 0.008"
             style="fill:none;stroke:#000000;stroke-width:20;stroke-linecap:round;stroke-linejoin:round;stroke-miterlimit:2.613;stroke-dasharray:none;stroke-opacity:1"
             id="path902" /></g></g></g></g></svg>
