<!-- Eldoryon — Obelisco de Éter (híbrido, FIX) -->
<svg xmlns="http://www.w3.org/2000/svg" viewBox="0 0 1200 1600">
    <defs>
        <!-- Gradientes principais -->
        <linearGradient id="facetDark" x1="0" y1="0" x2="0" y2="1">
            <stop offset="0%" stop-color="#0b0f17"/>
            <stop offset="100%" stop-color="#0a0c12"/>
        </linearGradient>
        <linearGradient id="facetMid" x1="0" y1="0" x2="1" y2="1">
            <stop offset="0%" stop-color="#0d1119"/>
            <stop offset="100%" stop-color="#0b0f16"/>
        </linearGradient>
        <linearGradient id="edgeGlow" x1="0" y1="0" x2="0" y2="1">
            <stop offset="0%" stop-color="#22d3ee"/>
            <stop offset="50%" stop-color="#fbbf24"/>
            <stop offset="100%" stop-color="#e879f9"/>
        </linearGradient>
        <radialGradient id="etherHalo" cx="50%" cy="35%" r="65%">
            <stop offset="0%" stop-color="#22d3ee" stop-opacity="0.26"/>
            <stop offset="55%" stop-color="#fbbf24" stop-opacity="0.18"/>
            <stop offset="100%" stop-color="#e879f9" stop-opacity="0.14"/>
        </radialGradient>
        <radialGradient id="core" cx="50%" cy="50%" r="60%">
            <stop offset="0%" stop-color="#cffffa" stop-opacity="0.9"/>
            <stop offset="60%" stop-color="#8be9ff" stop-opacity="0.45"/>
            <stop offset="100%" stop-color="#22d3ee" stop-opacity="0"/>
        </radialGradient>

        <!-- Textura de pedra sutil -->
        <filter id="stone">
            <feTurbulence type="fractalNoise" baseFrequency="0.9" numOctaves="2" seed="8" result="n"/>
            <feColorMatrix in="n" type="saturate" values="0"/>
            <feComponentTransfer>
                <feFuncA type="table" tableValues="0 0.06"/>
            </feComponentTransfer>
            <feBlend mode="overlay"/>
        </filter>

        <!-- Brilho geral -->
        <filter id="softGlow" x="-30%" y="-30%" width="160%" height="160%">
            <feGaussianBlur stdDeviation="8" result="g"/>
            <feMerge>
                <feMergeNode in="g"/>
                <feMergeNode in="SourceGraphic"/>
            </feMerge>
        </filter>

        <!-- Reflexo que percorre a aresta (anima) -->
        <linearGradient id="edgeSweep" x1="0" y1="0" x2="0" y2="1">
            <stop id="s1" offset="0%" stop-color="#ffffff" stop-opacity="0"/>
            <stop id="s2" offset="50%" stop-color="#ffffff" stop-opacity="0.9">
                <!-- anima o offset SEM xlink -->
                <animate attributeName="offset" values="0%;50%;100%" dur="6s" repeatCount="indefinite"/>
            </stop>
            <stop id="s3" offset="100%" stop-color="#ffffff" stop-opacity="0"/>
        </linearGradient>

        <!-- Runa-ring (fade nas bordas) -->
        <mask id="ringFade">
            <radialGradient id="ringMask" cx="50%" cy="50%" r="50%">
                <stop offset="70%" stop-color="#fff"/>
                <stop offset="100%" stop-color="#000"/>
            </radialGradient>
            <rect width="1200" height="1600" fill="url(#ringMask)"/>
        </mask>
    </defs>

    <!-- HALO -->
    <ellipse cx="600" cy="980" rx="460" ry="330" fill="url(#etherHalo)"/>
    <!-- Sombra no “chão” -->
    <ellipse cx="600" cy="1200" rx="260" ry="40" fill="#000" opacity="0.35"/>

    <!-- ANÉIS RÚNICOS (giro suave via animateTransform) -->
    <g mask="url(#ringFade)" opacity="0.55" transform="translate(0,-60)">
        <g>
            <circle cx="600" cy="800" r="420" fill="none" stroke="#d9fbff" stroke-width="2" opacity="0.25"/>
            <g>
                <animateTransform attributeName="transform" type="rotate"
                                  from="0 600 800" to="360 600 800" dur="60s" repeatCount="indefinite"/>
                <g fill="#d9fbff" opacity="0.8">
                    <circle cx="600" cy="380" r="4"/>
                    <circle cx="768" cy="414" r="4"/>
                    <circle cx="910" cy="505" r="4"/>
                    <circle cx="1004" cy="642" r="4"/>
                    <circle cx="1035" cy="800" r="4"/>
                    <circle cx="1004" cy="958" r="4"/>
                    <circle cx="910" cy="1095" r="4"/>
                    <circle cx="768" cy="1186" r="4"/>
                    <circle cx="600" cy="1220" r="4"/>
                    <circle cx="432" cy="1186" r="4"/>
                    <circle cx="290" cy="1095" r="4"/>
                    <circle cx="196" cy="958" r="4"/>
                    <circle cx="165" cy="800" r="4"/>
                    <circle cx="196" cy="642" r="4"/>
                    <circle cx="290" cy="505" r="4"/>
                    <circle cx="432" cy="414" r="4"/>
                    <!-- extras menores -->
                    <circle cx="600" cy="460" r="2.5"/>
                    <circle cx="825" cy="500" r="2.5"/>
                    <circle cx="985" cy="800" r="2.5"/>
                    <circle cx="825" cy="1100" r="2.5"/>
                    <circle cx="600" cy="1140" r="2.5"/>
                    <circle cx="375" cy="1100" r="2.5"/>
                    <circle cx="215" cy="800" r="2.5"/>
                    <circle cx="375" cy="500" r="2.5"/>
                </g>
            </g>
        </g>
    </g>

    <!-- OBELISCO (corpo) -->
    <g filter="url(#softGlow)">
        <!-- faces -->
        <path d="M600 200 L880 460 L880 1070 L600 1330 L600 200"
              fill="url(#facetMid)" filter="url(#stone)"/>
        <path d="M600 200 L320 460 L320 1070 L600 1330 L600 200"
              fill="url(#facetDark)" filter="url(#stone)"/>
        <path d="M880 460 L600 560 L320 460 L600 340 L880 460"
              fill="#0f141c" filter="url(#stone)"/>

        <!-- arestas cromadas -->
        <path d="M600 200 L600 1330" stroke="url(#edgeGlow)" stroke-width="3" opacity="0.95"/>
        <path d="M320 460 L600 200 L880 460" stroke="url(#edgeGlow)" stroke-width="2" opacity="0.85"/>
        <path d="M320 1070 L600 1330 L880 1070" stroke="url(#edgeGlow)" stroke-width="2" opacity="0.65"/>

        <!-- reflexo que “desce” a aresta central -->
        <path d="M600 200 L600 1330" stroke="url(#edgeSweep)" stroke-width="6" opacity="0.45"/>

        <!-- SIGILO CENTRAL (coração do Éter) -->
        <g transform="translate(0,80)">
            <circle cx="600" cy="760" r="96" fill="none" stroke="url(#edgeGlow)" stroke-width="2.2"/>
            <circle cx="600" cy="760" r="60" fill="url(#core)">
                <animate attributeName="r" values="56;64;56" dur="5.5s" repeatCount="indefinite"/>
            </circle>
            <g stroke="#bda7ff" stroke-width="2">
                <path d="M600 700 L640 760 L600 820 L560 760 Z" fill="none"/>
                <circle cx="600" cy="760" r="8" fill="#bda7ff"/>
            </g>
            <!-- glifos -->
            <g stroke="#e6fff8" stroke-width="2" opacity="0.9">
                <path d="M565 725 l-10 0 m20 0 l-10 0 m10 70 l-10 0 m20 0 l-10 0"/>
                <path d="M635 725 l10 0 m-20 0 l10 0 m-10 70 l10 0 m-20 0 l10 0"/>
            </g>
        </g>

        <!-- runas verticais gravadas -->
        <g stroke="#dafcff" stroke-width="2" opacity="0.85">
            <path d="M600 610 v30 m0 20 v28 m0 20 v28 m0 20 v28"/>
            <path d="M588 640 l24 12 m-24 12 l24 -12"/>
            <path d="M588 700 l24 0 m-12 -12 v24"/>
            <path d="M588 760 l24 12 m-24 12 l24 -12"/>
            <path d="M588 820 l24 0 m-12 -12 v24"/>
        </g>
    </g>
</svg>
